<svg width="18" height="20" viewBox="0 0 18 20" fill="none" xmlns="http://www.w3.org/2000/svg">
<path d="M2.76835 10.1406L4.66679 9.44918C4.72538 9.42578 4.79569 9.41406 4.86597 9.41406H17.03C17.3582 9.41406 17.616 9.67184 17.616 10V18.2422C17.616 19.2148 16.8308 20 15.8582 20H4.1394C3.16671 20 2.38159 19.2148 2.38159 18.2422V10.6914C2.38159 10.4453 2.53397 10.2227 2.76835 10.1406Z" fill="#FC1A40"/>
<path d="M2.38135 10.6914V18.2422C2.38135 19.2148 3.16646 20 4.13916 20H9.99854V9.41406H4.86572C4.79541 9.41406 4.7251 9.42578 4.66654 9.44918L2.76811 10.1406C2.53373 10.2227 2.38135 10.4453 2.38135 10.6914Z" fill="#C60034"/>
<path d="M2.59235 3.81984C2.79153 3.01124 3.38922 2.37847 4.19782 2.12062C4.99469 1.87449 5.8502 2.05031 6.47126 2.61277L7.83067 3.80812L8.10016 2.01519C8.22907 1.19488 8.75641 0.50343 9.54153 0.175344C9.69387 0.116712 9.84622 0.0698366 9.99856 0.0463991C10.6431 -0.0825072 11.3111 0.0581178 11.8502 0.456594C12.565 0.972219 12.9282 1.83941 12.8111 2.70656C12.6822 3.57374 12.0962 4.31202 11.2642 4.60499L9.99856 5.06202L8.43997 5.63624C8.42825 5.63624 8.42825 5.63624 8.42825 5.63624L5.72122 6.6323C5.45172 6.72609 5.17047 6.773 4.90094 6.773C4.32665 6.773 3.76418 6.56199 3.31887 6.16359C2.66266 5.57765 2.38141 4.67527 2.59235 3.81984Z" fill="#FE9923"/>
<path d="M3.31885 6.16361C3.76416 6.56201 4.32666 6.77303 4.90092 6.77303C5.17041 6.77303 5.45166 6.72611 5.72119 6.63232L8.42822 5.63627C8.42822 5.63627 8.42822 5.63627 8.43994 5.63627L9.99854 5.06205V0.0463867C9.84619 0.0698633 9.69385 0.116699 9.5415 0.175332C8.75639 0.503418 8.229 1.19486 8.10014 2.01518L7.83064 3.80811L6.47123 2.61275C5.85018 2.05029 4.99467 1.87447 4.19779 2.12061C3.3892 2.37846 2.79154 3.01123 2.59232 3.81982C2.38135 4.67529 2.6626 5.57768 3.31885 6.16361Z" fill="#FE8821"/>
<path d="M0.377581 9.14444L1.17446 11.3476C1.26824 11.5819 1.4909 11.7226 1.72528 11.7226C1.79559 11.7226 1.8659 11.7108 1.92445 11.6875L7.98309 9.48433L8.53383 7.66792L9.99867 7.99601L11.2877 8.28897L17.3463 6.08585C17.651 5.9687 17.8033 5.62882 17.6979 5.33585L16.8893 3.1328C16.737 2.68749 16.4088 2.33585 15.9869 2.13667C15.565 1.93749 15.0846 1.91401 14.6393 2.07808L9.99863 3.76558L9.68219 3.88273C9.68219 3.88273 8.4166 6.17964 8.38141 6.17964C8.35793 6.17964 7.85406 5.89839 7.36188 5.62882C6.86981 5.35929 6.37758 5.07808 6.37758 5.07808L1.43231 6.88272C0.986994 7.04679 0.635431 7.37495 0.436253 7.79683C0.236956 8.21866 0.213556 8.69917 0.377581 9.14444Z" fill="#FF3E75"/>
<path d="M0.377441 9.14443L1.17432 11.3476C1.26811 11.5819 1.49076 11.7226 1.72514 11.7226C1.79545 11.7226 1.86576 11.7108 1.92432 11.6874L7.98295 9.48431L8.53369 7.66791L9.99854 7.99599V3.76556L9.68209 3.88271C9.68209 3.88271 8.4165 6.17963 8.38131 6.17963C8.35783 6.17963 7.85396 5.89838 7.36178 5.62881C6.86967 5.35928 6.37744 5.07806 6.37744 5.07806L1.43217 6.88271C0.986856 7.04677 0.635293 7.37494 0.436113 7.79681C0.236816 8.21865 0.213418 8.69916 0.377441 9.14443Z" fill="#FC1A40"/>
<path d="M11.7566 9.41406V20H8.24097V9.41406H11.7566Z" fill="#FCBF29"/>
<path d="M9.68237 3.88275L9.99882 4.74994L11.2878 8.28904L9.99882 8.75783L8.53398 9.28517L7.98323 9.48435L6.37769 5.0781L9.68237 3.88275Z" fill="#FCBF29"/>
<path d="M8.24048 9.41406H9.99829V20H8.24048V9.41406Z" fill="#FE9923"/>
<path d="M6.37744 5.0781L7.98295 9.48435L8.53369 9.28513L9.99854 8.75779V4.74994L9.68213 3.88275L6.37744 5.0781Z" fill="#FE9923"/>
</svg>
